<?xml version="1.0" encoding="utf-8"?>
<!-- Generator: Adobe Illustrator 19.0.0, SVG Export Plug-In . SVG Version: 6.00 Build 0)  -->
<svg version="1.1" id="图层_1" xmlns="http://www.w3.org/2000/svg" xmlns:xlink="http://www.w3.org/1999/xlink" x="0px" y="0px"
	 viewBox="48 20 160 25" style="enable-background:new 48 20 160 25;" xml:space="preserve">
<style type="text/css">
	.st0{fill:#EB6438;}
	.st1{fill:#8D9095;}
</style>
<g>
	<g>
		<path class="st0" d="M60.7,45H48V20.3h13.3l11.9,12.3L71.8,34l0,0L61.3,45H60.7z M50,42.9h10.1l10.2-10.3L60.1,22.3H50V42.9z"/>
	</g>
	<g>
		<polygon id="XMLID_7_" class="st1" points="126.1,44.7 102,44.7 102,20 104,20 104,42.7 126.1,42.7 		"/>
	</g>
	<g>
		<g>
			<path class="st1" d="M195.6,44.7h-12.7V20h13.3v0.3l11.9,12l-1.4,1.4l0,0l-10.5,10.6v0.3L195.6,44.7z M184.9,42.7H195l10.2-10.3
				l-10.3-10.3h-10.1v20.6H184.9z"/>
		</g>
	</g>
	<g>
		<polygon id="XMLID_4_" class="st1" points="180.2,44.7 156,44.7 156,20 158,20 158,42.7 178.1,42.7 178.1,20.2 180.2,20.2 		"/>
	</g>
	<g>
		<g>
			<path class="st1" d="M153.1,44.7h-24.2V20h24.2C153.1,20,153.1,44.7,153.1,44.7z M131,42.7h20V22.1h-20V42.7z"/>
		</g>
	</g>
	<polygon id="XMLID_1_" class="st1" points="99.8,44.7 86.5,44.7 74.6,32.3 86.5,20 87.1,20 98.8,20 98.8,22.1 87.7,22.1 77.5,32.3 
		87.7,42.7 99.8,42.7 	"/>
</g>
</svg>
